# xmcd CD database file
#
# Track frame offsets:
#	150
#	55562
#	75523
#	113637
#	137953
#	149987
#	164028
#	182316
#	201842
#	223556
#	245700
#	288053
#	324289
#
# Disc length: 4558 seconds
#
# Revision: 6
# Processed by: cddbd v1.5.1PL0 Copyright (c) Steve Scherf et al.
# Submitted via: CDex 1.51
#
DISCID=be11cc0d
DTITLE=Jason Mark - Triangulation
DYEAR=2004
DGENRE=New Age
TTITLE0=Jason Mark - Nebular Buddha  Part 1
TTITLE1=Jason Mark - Hollywood 68
TTITLE2=Jason Mark - Safe Evening Darkness 1
TTITLE3=Jason Mark - Didgeridisaster
TTITLE4=Jason Mark - Hiding from alien spacecraft 
TTITLE5=Jason Mark - 5 am
TTITLE6=Jason Mark - Deleted Mayan Renaissance
TTITLE7=Jason Mark - The Corner of Synth and Rhodes  
TTITLE8=Jason Mark - .::Earth 2112::.
TTITLE9=Jason Mark - March of the Congo freaks
TTITLE10=Jason Mark - Nebular Buddha
TTITLE11=Jason Mark - Jonny gone and died at war.
TTITLE12=Jason Mark - Rebirth in Space
EXTD=YEAR: 2004
EXTT0=
EXTT1=
EXTT2=
EXTT3=
EXTT4=
EXTT5=
EXTT6=
EXTT7=
EXTT8=
EXTT9=
EXTT10=
EXTT11=
EXTT12=
PLAYORDER=
